# xmcd
#
# Track frame offsets:
#	150
#	21412
#	42478
#	64640
#	84623
#	108874
#	129853
#	150869
#	170417
#	191703
#	213958
#	236007
#	259174
#	281993
#	305743
#
# Disc length: 4380 seconds
#
# Revision: 0
# Processed by: cddbd v1.5.1PL2 Copyright (c) Steve Scherf et al.
# Submitted via: dBpowerAMP V4.0
#
DISCID=d0111a0f
DTITLE=Per Lagerkvist - Dvärgen - CD-BOK 02/05
DYEAR=2005
DGENRE=CD-BOK
TTITLE0=02.01
TTITLE1=02.02
TTITLE2=02.03
TTITLE3=02.04
TTITLE4=02.05
TTITLE5=02.06
TTITLE6=02.07
TTITLE7=02.08
TTITLE8=02.09
TTITLE9=02.10
TTITLE10=02.11
TTITLE11=02.12
TTITLE12=02.13
TTITLE13=02.14
TTITLE14=02.15
EXTD=
EXTT0=
EXTT1=
EXTT2=
EXTT3=
EXTT4=
EXTT5=
EXTT6=
EXTT7=
EXTT8=
EXTT9=
EXTT10=
EXTT11=
EXTT12=
EXTT13=
EXTT14=
PLAYORDER=
